<?xml version="1.0" encoding="UTF-8"?>
<svg width="40px" height="40px" viewBox="0 0 40 40" version="1.1" xmlns="http://www.w3.org/2000/svg" xmlns:xlink="http://www.w3.org/1999/xlink">
    <!-- Generator: Sketch 46.2 (44496) - http://www.bohemiancoding.com/sketch -->
    <title>Icon-Social-Snapchat</title>
    <desc>Created with Sketch.</desc>
    <defs>
        <path d="M25.9366755,17.9129288 C25.9718569,17.9129288 26.0685999,17.8777473 26.2269146,17.8073879 C26.385226,17.7370284 26.4995614,17.701847 26.5699208,17.701847 C27.0624473,17.701847 27.414248,17.7546174 27.6253298,17.8601583 C27.9067745,18.0008806 28.0562879,18.1855755 28.0738769,18.4142497 C28.0914693,18.6429205 27.9771339,18.8452044 27.7308707,19.0211082 C27.5197889,19.1618305 27.0976287,19.3553199 26.4643799,19.6015831 C25.9718535,19.7774869 25.6816177,19.9709763 25.5936692,20.182058 C25.5057174,20.3931398 25.5848713,20.7273516 25.8311346,21.1846966 C26.7106465,22.8733611 27.9419458,23.9111675 29.525066,24.298153 C29.8416887,24.4036939 30,24.5092348 30,24.6147757 C30,24.9313984 29.8944591,25.1600692 29.6833773,25.3007916 C29.1204914,25.5470548 28.5048418,25.7581345 27.8364116,25.9340369 C27.4846075,26.0395785 27.2735257,26.2330682 27.2031662,26.5145119 C27.1328068,26.9014971 27.0360604,27.1389617 26.9129271,27.2269129 C26.7897972,27.3148641 26.5347428,27.323659 26.1477573,27.2532982 C24.9516226,27.0070349 23.8434533,27.2532944 22.823219,27.9920844 C21.8029847,28.7308744 20.8531268,29.0914689 19.9736148,29.0738786 C19.0941028,29.0562884 18.1442449,28.678104 17.1240106,27.939314 C16.1389577,27.2357044 15.0659698,27.0070349 13.9050132,27.2532982 C13.5180277,27.323659 13.2629733,27.3148641 13.1398417,27.2269129 C13.0167101,27.1389617 12.9023753,26.9014971 12.7968338,26.5145119 C12.7264729,26.1627071 12.5329832,25.9692174 12.2163588,25.9340369 C11.5479297,25.8284954 10.9498708,25.6350066 10.4221636,25.353562 C10.2110807,25.2480211 10.070361,25.0193503 10,24.6675462 C10,24.4916424 10.1934897,24.3509235 10.5804749,24.2453826 C12.2339573,23.7880376 13.5004353,22.6270978 14.3799472,20.762533 C14.5206696,20.4107289 14.4151287,20.1116986 14.0633245,19.8654354 C13.9577836,19.8302539 13.7994723,19.7774835 13.5883905,19.707124 C13.3773077,19.6367645 13.218998,19.5664017 13.1134565,19.4960422 C12.8320125,19.3553199 12.6385231,19.249779 12.5329815,19.1794195 C12.0404548,18.8979749 11.8821451,18.5637665 12.0580475,18.176781 C12.2691303,17.6490731 12.6736998,17.4907652 13.2717678,17.701847 C13.6235719,17.8425693 13.8874208,17.9305178 14.0633245,17.9656992 C14.4151287,18.0008806 14.591029,17.8425693 14.591029,17.4907652 C14.5558476,16.5408937 14.5558476,15.5910324 14.591029,14.6411609 C14.7317513,12.6358738 15.7871502,11.2638556 17.7572559,10.525066 C19.0589349,9.9973581 20.4045661,9.94458765 21.7941969,10.3667546 C23.1838244,10.7889216 24.2304287,11.6156496 24.9340369,12.8469657 C25.2506596,13.445033 25.4441524,14.394891 25.5145119,15.6965699 C25.5145119,15.9076517 25.4969228,16.2154765 25.4617414,16.6200545 C25.42656,17.024629 25.408971,17.3324538 25.408971,17.5435356 C25.3737896,17.7546174 25.408971,17.8865418 25.5145119,17.9393123 C25.6200528,17.9920861 25.7607717,17.9832882 25.9366755,17.9129288 Z" id="path-1"></path>
    </defs>
    <g id="Symbols" stroke="none" stroke-width="1" fill="none" fill-rule="evenodd">
        <g id="Footer-XL" transform="translate(-1270.000000, -68.000000)">
            <g id="Icon-SocialChannel-Snapchat" transform="translate(1270.000000, 68.000000)">
                <rect id="Rectangle-5-Copy-4" fill="#FFFFFF" fill-rule="evenodd" x="0" y="0" width="40" height="40"></rect>
                <g id="Page-1">
                    <use fill="#FFFFFF" fill-rule="evenodd" xlink:href="#path-1"></use>
                    <path stroke="#999999" stroke-width="1" d="M26.058532,18.4012052 C25.7856567,18.4974479 25.5261036,18.5041327 25.2909051,18.3865259 C24.9414304,18.2117885 24.8486705,17.8639442 24.908971,17.5435356 C24.908971,17.3151519 24.9272949,16.9944788 24.9636212,16.5767388 C24.9976557,16.1853508 25.0145119,15.8903625 25.0152407,15.723557 C24.9484465,14.487837 24.7679876,13.6019513 24.4999152,13.0950349 C23.8600624,11.9752909 22.9171523,11.2304712 21.6488569,10.8451648 C20.3677571,10.4559693 19.1397356,10.5041271 17.9328177,10.9932306 C16.1433094,11.6642961 15.2166219,12.8689898 15.0906864,14.6596673 C15.0559618,15.5972054 15.0559618,16.5347207 15.091029,17.4907652 C15.091029,18.139021 14.6590853,18.5277709 13.9652647,18.4559892 C13.7526103,18.4134575 13.4639597,18.3172409 13.1053585,18.1733424 C12.7498915,18.0478841 12.6292377,18.0950963 12.5132308,18.3836824 C12.4574752,18.5063446 12.4925815,18.5804578 12.8103273,18.7633915 C12.8938471,18.8190701 13.0731433,18.9168683 13.3908023,19.0800142 C13.4531421,19.1215731 13.5739437,19.1752633 13.7465021,19.2327816 C14.0367415,19.3295269 14.0367415,19.3295269 14.221443,19.3910952 L14.350056,19.4558196 C14.8842596,19.8297626 15.0751879,20.3707252 14.832163,20.9758424 C13.8934678,22.9658757 12.5156176,24.2289055 10.712033,24.7277647 C10.6486347,24.745055 10.5949472,24.762574 10.551449,24.7792779 C10.5833459,24.8524813 10.6193619,24.8932247 10.6574582,24.9123858 C11.1343893,25.1667498 11.6792972,25.3430433 12.2715745,25.4370951 C12.8138369,25.4973463 13.1756693,25.8591787 13.2792156,26.382953 C13.355817,26.6638243 13.4313359,26.8206713 13.4304609,26.8200463 C13.4076407,26.8037462 13.5545933,26.8088135 13.8012612,26.7641811 C15.100174,26.4886544 16.3161068,26.7477876 17.4172654,27.5343429 C18.3611193,28.217823 19.2171481,28.5586493 19.9836128,28.5739786 C20.7423842,28.589154 21.5911692,28.2669301 22.5299642,27.5871133 C23.6628602,26.7667407 24.9137841,26.4887577 26.2371997,26.7613632 C26.4981758,26.8088132 26.645128,26.8037459 26.6223105,26.8200444 C26.6052931,26.8321995 26.6629311,26.6907257 26.7180944,26.3932464 C26.8346285,25.9271005 27.182538,25.6081842 27.7091652,25.4504996 C28.3532789,25.2809963 28.9445134,25.0782873 29.4060257,24.8847674 C29.4333701,24.8665377 29.4549071,24.8427526 29.4704258,24.8081293 C29.4496007,24.7997481 29.4279406,24.7915288 29.4063392,24.7838525 C27.6766681,24.3610433 26.3309941,23.2268332 25.3908992,21.4217469 C25.0791736,20.8428291 24.9695455,20.3799501 25.132129,19.9897546 C25.2897324,19.6114968 25.6817086,19.3501794 26.2831569,19.1355807 C26.8839084,18.9019553 27.281684,18.7196417 27.44025,18.6142426 C27.5540902,18.5329275 27.5782423,18.4901969 27.5753495,18.4525951 C27.5727,18.4181495 27.5383073,18.375664 27.401723,18.3073719 C27.2761015,18.2445611 26.9913408,18.201847 26.5699208,18.201847 C26.5893064,18.201847 26.5281527,18.2206637 26.4299775,18.2642965 C26.2600028,18.339838 26.1542038,18.3824343 26.058532,18.4012052 Z"></path>
                </g>
            </g>
        </g>
    </g>
</svg>