<?xml version="1.0" encoding="UTF-8"?>
<svg width="40px" height="40px" viewBox="0 0 40 40" version="1.1" xmlns="http://www.w3.org/2000/svg" xmlns:xlink="http://www.w3.org/1999/xlink">
    <!-- Generator: Sketch 46.2 (44496) - http://www.bohemiancoding.com/sketch -->
    <title>Icon-SocialHover-Twitter</title>
    <desc>Created with Sketch.</desc>
    <defs></defs>
    <g id="Symbols" stroke="none" stroke-width="1" fill="none" fill-rule="evenodd">
        <g id="Icon-SocialHover-Twitter">
            <rect id="Rectangle-5" fill="#1DA1F2" x="0" y="0" width="40" height="40"></rect>
            <path d="M31,13.9289357 C30.4331634,14.7580428 29.7478911,15.4644643 28.9441632,16.0482231 C28.9526229,16.1666674 28.9568527,16.3443324 28.9568527,16.5812181 C28.9568527,17.6810553 28.79611,18.7787605 28.4746188,19.8743678 C28.1531304,20.9699723 27.6645546,22.0211464 27.0088827,23.0279213 C26.3532136,24.0346933 25.572764,24.9251246 24.6675141,25.6992399 C23.7622641,26.4733555 22.6709036,27.0909466 21.3934014,27.5520318 C20.1158993,28.0131171 18.7495845,28.2436563 17.2944173,28.2436563 C15.0016806,28.2436563 12.9035629,27.6302951 11,26.4035548 C11.2961098,26.4373958 11.6260559,26.4543161 11.9898478,26.4543161 C13.8934093,26.4543161 15.5896721,25.8705655 17.0786809,24.7030462 C16.1903503,24.6861268 15.3950962,24.4132874 14.6928931,23.8845195 C13.9906901,23.3557515 13.5084615,22.6810538 13.2461931,21.8604065 C13.5253821,21.9027078 13.7834167,21.9238599 14.0203047,21.9238599 C14.3840972,21.9238599 14.7436542,21.8773287 15.0989841,21.7842664 C14.1514328,21.5896792 13.3667545,21.1180255 12.744924,20.3692913 C12.1230934,19.6205571 11.8121828,18.751275 11.8121828,17.7614224 L11.8121828,17.7106613 C12.3874816,18.0321525 13.005073,18.2055848 13.6649747,18.2309668 C13.1065961,17.8587146 12.6624382,17.3722536 12.3324874,16.7715754 C12.0025365,16.1708944 11.8375636,15.5194637 11.8375636,14.8172606 C11.8375636,14.0727562 12.0236869,13.3832541 12.3959391,12.7487314 C13.419633,14.0093142 14.6653906,15.0181869 16.1332502,15.7753809 C17.6011069,16.5325776 19.1725806,16.9534703 20.8477169,17.0380729 C20.7800337,16.7165817 20.7461921,16.4035559 20.7461921,16.098987 C20.7461921,14.9653081 21.1459354,13.9987367 21.9454307,13.1992386 C22.7449288,12.3997434 23.7115002,12 24.845179,12 C26.029616,12 27.0279142,12.4314672 27.8401018,13.2944159 C28.762274,13.1167509 29.6294383,12.7868057 30.441626,12.3045689 C30.1285945,13.2775022 29.5279248,14.0304549 28.6395942,14.5634527 C29.4263999,14.47885 30.2131943,14.2673463 31,13.9289357 Z" id="Page-1" fill="#FFFFFF"></path>
        </g>
    </g>
</svg>