<?xml version="1.0" encoding="UTF-8"?>
<svg width="40px" height="40px" viewBox="0 0 40 40" version="1.1" xmlns="http://www.w3.org/2000/svg" xmlns:xlink="http://www.w3.org/1999/xlink">
    <!-- Generator: Sketch 46.2 (44496) - http://www.bohemiancoding.com/sketch -->
    <title>Icon-Social-YouTube</title>
    <desc>Created with Sketch.</desc>
    <defs></defs>
    <g id="Symbols" stroke="none" stroke-width="1" fill="none" fill-rule="evenodd">
        <g id="Footer-XL" transform="translate(-1320.000000, -68.000000)">
            <g id="Icon-SocialChannel-YouTube" transform="translate(1320.000000, 68.000000)">
                <rect id="Rectangle-5-Copy" fill="#FFFFFF" x="0" y="0" width="40" height="40"></rect>
                <path d="M24.285715,20.1428575 C24.285715,19.86756 24.1741075,19.6666675 23.9508925,19.54018 L18.2366075,15.96875 C18.00595,15.81994 17.7641375,15.8125 17.51116,15.94643 C17.265625,16.0803575 17.1428575,16.28869 17.1428575,16.57143 L17.1428575,23.7142875 C17.1428575,23.997025 17.265625,24.2053575 17.51116,24.3392875 C17.63021,24.39881 17.745535,24.4285725 17.8571425,24.4285725 C18.0059525,24.4285725 18.13244,24.39137 18.2366075,24.316965 L23.9508925,20.7455375 C24.1741075,20.6190475 24.285715,20.4181575 24.285715,20.1428575 Z M30,20.1428575 C30,20.8571475 29.99628,21.4151775 29.98884,21.816965 C29.9814,22.2187525 29.9497775,22.72656 29.8939725,23.3404025 C29.83817,23.954245 29.754465,24.502975 29.6428575,24.9866077 C29.52381,25.5297653 29.267115,25.98735 28.8727675,26.3593757 C28.47842,26.7314015 28.017115,26.947173 27.48884,27.0066973 C25.837045,27.19271 23.34079,27.285715 20,27.285715 C16.65921,27.285715 14.162955,27.19271 12.51116,27.0066973 C11.9828842,26.947173 11.5197192,26.7314015 11.1216517,26.3593757 C10.7235843,25.98735 10.4650302,25.5297653 10.3459823,24.9866077 C10.241815,24.502975 10.1618306,23.954245 10.1060268,23.3404025 C10.0502229,22.72656 10.0186012,22.2187525 10.0111607,21.816965 C10.0037202,21.4151775 10,20.8571475 10,20.1428575 C10,19.4285675 10.0037202,18.8705375 10.0111607,18.46875 C10.0186012,18.0669625 10.0502229,17.559155 10.1060268,16.9453125 C10.1618306,16.33147 10.2455352,15.78274 10.3571427,15.2991075 C10.476191,14.75595 10.732885,14.298365 11.1272323,13.92634 C11.5215793,13.554315 11.9828842,13.3385425 12.51116,13.2790175 C14.162955,13.093005 16.65921,13 20,13 C23.34079,13 25.837045,13.093005 27.48884,13.2790175 C28.017115,13.3385425 28.48028,13.554315 28.8783475,13.92634 C29.276415,14.298365 29.53497,14.75595 29.6540175,15.2991075 C29.758185,15.78274 29.83817,16.33147 29.8939725,16.9453125 C29.9497775,17.559155 29.9814,18.0669625 29.98884,18.46875 C29.99628,18.8705375 30,19.4285675 30,20.1428575 Z" id="Page-1" fill="#999999"></path>
            </g>
        </g>
    </g>
</svg>