<?xml version="1.0" encoding="UTF-8"?>
<svg width="40px" height="40px" viewBox="0 0 40 40" version="1.1" xmlns="http://www.w3.org/2000/svg" xmlns:xlink="http://www.w3.org/1999/xlink">
    <!-- Generator: Sketch 46.2 (44496) - http://www.bohemiancoding.com/sketch -->
    <title>Icon-Social-Mail-White</title>
    <desc>Created with Sketch.</desc>
    <defs></defs>
    <g id="Symbols" stroke="none" stroke-width="1" fill="none" fill-rule="evenodd">
        <g id="Footer-XL" transform="translate(-930.000000, -68.000000)">
            <g id="Icon-SocialShare-Mail" transform="translate(930.000000, 68.000000)">
                <rect id="Rectangle-5-Copy-2" fill="#FFFFFF" x="0" y="0" width="40" height="40"></rect>
                <path d="M23.8117996,22.2482189 C23.8117996,22.6958309 23.8796175,23.0145782 24.0152584,23.2044765 C24.1508994,23.3943723 24.3814816,23.4893162 24.7070183,23.4893162 C25.4394725,23.4893162 26.0193242,23.0518844 26.4465916,22.1770077 C26.8738563,21.302131 27.0874848,20.0983451 27.0874848,18.5656162 C27.0874848,17.3855474 26.8874194,16.3614824 26.4872833,15.4933872 C26.0871447,14.6252921 25.5378125,13.9030205 24.8392659,13.3265518 C24.1407219,12.7500805 23.3235038,12.3194328 22.3875881,12.0345879 C21.4516725,11.749743 20.4479521,11.6073231 19.3763981,11.6073231 C18.2777154,11.6073231 17.2231309,11.7904347 16.2126133,12.1566631 C15.2020957,12.5228916 14.3102782,13.0654422 13.5371322,13.7843334 C12.7639836,14.5032246 12.146831,15.3916513 11.685656,16.4496448 C11.2244805,17.5076357 10.9938961,18.7351569 10.9938961,20.1322476 C10.9938961,21.4615177 11.2041349,22.6381775 11.624617,23.6622582 C12.0451029,24.6863388 12.6419084,25.5476394 13.4150544,26.2461834 C14.188203,26.94473 15.1207122,27.4703261 16.2126133,27.8229897 C17.3045145,28.1756532 18.5218634,28.3519825 19.8646992,28.3519825 C20.7734861,28.3519825 21.5873134,28.2943364 22.3062046,28.1790427 C23.0250958,28.0637487 23.8524862,27.8501192 24.7884018,27.5381474 L25.1953194,29.2065094 C24.2594038,29.5049171 23.3235038,29.7083738 22.3875881,29.8168858 C21.4516725,29.9253977 20.5971534,29.9796528 19.8240074,29.9796528 C18.0742541,29.9796528 16.5245921,29.7456776 15.1749748,29.2777201 C13.8253575,28.8097626 12.6927828,28.1485279 11.7772118,27.2939968 C10.8616433,26.4394647 10.1698902,25.4052274 9.70193268,24.191251 C9.23397526,22.9772746 9,21.6242873 9,20.1322476 C9,18.6266447 9.26110279,17.2533129 9.7833162,16.0122078 C10.3055299,14.7711027 11.0278014,13.7029551 11.9501511,12.8077313 C12.8725037,11.9125074 13.9711707,11.2207553 15.246186,10.7324516 C16.5211988,10.2441479 17.911487,10 19.4170899,10 C20.9769475,10 22.3570635,10.2204126 23.5574768,10.6612404 C24.7578902,11.1020708 25.761608,11.6988763 26.5686669,12.4516777 C27.3757231,13.2044791 27.9827035,14.0895177 28.389621,15.1068142 C28.7965412,16.1241134 29,17.2092174 29,18.3621548 C29,19.3387622 28.9186165,20.2441453 28.7558495,21.0783303 C28.5930798,21.9125152 28.3150217,22.6381775 27.9216671,23.2553406 C27.5283126,23.8725011 27.0061065,24.3574062 26.3550332,24.710069 C25.7039625,25.0627343 24.8969192,25.2390644 23.9338749,25.2390644 C23.0522167,25.2390644 22.3435082,25.0559528 21.8077313,24.6897244 C21.2719543,24.323496 20.9633766,23.7538166 20.8819931,22.9806706 C20.6649687,23.8487657 20.2682286,24.4421805 19.6917599,24.7609356 C19.1152885,25.0796881 18.4201457,25.2390644 17.606308,25.2390644 C17.0637469,25.2390644 16.5517156,25.1339429 16.0701935,24.9237026 C15.5886713,24.7134597 15.1648025,24.3981032 14.7985741,23.9776173 C14.4323483,23.5571341 14.1407271,23.0315372 13.9237026,22.4008137 C13.7066782,21.7700875 13.5981686,21.0274714 13.5981686,20.1729393 C13.5981686,19.3319729 13.6965059,18.5724003 13.8931832,17.8942009 C14.0898604,17.2160015 14.3780909,16.6395406 14.757885,16.1647999 C15.1376764,15.6900619 15.6056251,15.3238387 16.1617493,15.0661251 C16.7178734,14.8084089 17.3553707,14.6795521 18.0742619,14.6795521 C18.8474079,14.6795521 19.4713421,14.8185812 19.9460827,15.0966419 C20.4208233,15.3747053 20.7666994,15.7510982 20.9837212,16.2258389 L21.7161728,14.9033581 L23.8117996,14.9033581 L23.8117996,22.2482189 L23.8117996,22.2482189 Z M20.7395707,18.9521866 C20.7395707,18.2739872 20.5327237,17.7789098 20.119022,17.4669362 C19.7053203,17.1549651 19.2882357,16.9989823 18.8677498,16.9989823 C18.4065749,16.9989823 17.9657523,17.2160041 17.545269,17.6500504 C17.1247858,18.0840966 16.9145455,18.8504507 16.9145455,19.949136 C16.9145455,20.8307942 17.0908756,21.5055924 17.4435409,21.9735489 C17.7962037,22.441508 18.2709365,22.6754811 18.8677498,22.6754811 C19.27467,22.6754811 19.6883665,22.5296705 20.1088497,22.2380466 C20.529333,21.9464202 20.7395707,21.4343864 20.7395707,20.7019322 L20.7395707,18.9521866 Z" id="Page-1" fill="#999999"></path>
            </g>
        </g>
    </g>
</svg>
