<?xml version="1.0" encoding="UTF-8"?>
<svg width="40px" height="40px" viewBox="0 0 40 40" version="1.1" xmlns="http://www.w3.org/2000/svg" xmlns:xlink="http://www.w3.org/1999/xlink">
    <!-- Generator: Sketch 46.2 (44496) - http://www.bohemiancoding.com/sketch -->
    <title>Icon-Social-Facebook</title>
    <desc>Created with Sketch.</desc>
    <defs></defs>
    <g id="Symbols" stroke="none" stroke-width="1" fill="none" fill-rule="evenodd">
        <g id="Footer-XL" transform="translate(-1170.000000, -68.000000)">
            <g id="Icon-SocialChannel-Facebook" transform="translate(1170.000000, 68.000000)">
                <rect id="Rectangle-5" fill="#FFFFFF" x="0" y="0" width="40" height="40"></rect>
                <path d="M25.3846164,10.1442296 L25.3846164,13.3173056 L23.4975966,13.3173056 C22.8084897,13.3173056 22.3437516,13.4615352 22.1033662,13.7499998 C21.8629808,14.0384618 21.7427881,14.4711506 21.7427881,15.0480772 L21.7427881,17.319712 L25.2644237,17.319712 L24.795674,20.8774029 L21.7427881,20.8774029 L21.7427881,30 L18.0649044,30 L18.0649044,20.8774029 L15,20.8774029 L15,17.319712 L18.0649044,17.319712 L18.0649044,14.6995176 C18.0649044,13.209126 18.481566,12.0532886 19.3149052,11.2319705 C20.1482418,10.4106523 21.2580057,10 22.644232,10 C23.822122,10 24.7355736,10.0480765 25.3846164,10.1442296 Z" id="Page-1" fill="#999999"></path>
            </g>
        </g>
    </g>
</svg>