<?xml version="1.0" encoding="UTF-8"?>
<svg width="40px" height="40px" viewBox="0 0 40 40" version="1.1" xmlns="http://www.w3.org/2000/svg" xmlns:xlink="http://www.w3.org/1999/xlink">
    <!-- Generator: Sketch 46.2 (44496) - http://www.bohemiancoding.com/sketch -->
    <title>Icon-SocialHover-LinkedIn</title>
    <desc>Created with Sketch.</desc>
    <defs></defs>
    <g id="Symbols" stroke="none" stroke-width="1" fill="none" fill-rule="evenodd">
        <g id="Icon-SocialHover-LinkedIn">
            <rect id="Rectangle-5-Copy-2" fill="#0077B5" x="0" y="0" width="40" height="40"></rect>
            <path d="M14.5442716,15.2109365 L14.5442716,28.1145817 L10.2473958,28.1145817 L10.2473958,15.2109365 L14.5442716,15.2109365 Z M14.8177091,11.22656 C14.8263891,11.8602437 14.6072074,12.3897528 14.1601553,12.815102 C13.7131062,13.2404512 13.1250041,13.4531228 12.3958334,13.4531228 L12.3697916,13.4531228 C11.6579826,13.4531228 11.0850717,13.2404512 10.6510417,12.815102 C10.2170117,12.3897528 10,11.8602437 10,11.22656 C10,10.5841962 10.2235221,10.0525171 10.6705729,9.6315079 C11.1176238,9.21049875 11.7013853,9 12.4218748,9 C13.1423641,9 13.7196162,9.21049875 14.1536453,9.6315079 C14.5876745,10.0525171 14.8090291,10.5841962 14.8177091,11.22656 Z M30,20.7187493 L30,28.1145817 L25.7161459,28.1145817 L25.7161459,21.2135414 C25.7161459,20.3020773 25.5403672,19.5881094 25.1888009,19.0716144 C24.8372376,18.5551165 24.2881985,18.2968748 23.541666,18.2968748 C22.9947881,18.2968748 22.5368947,18.4466106 22.1679685,18.746091 C21.7990423,19.0455744 21.5234377,19.4166619 21.341146,19.8593739 C21.2456602,20.1197914 21.1979173,20.4713518 21.1979173,20.914061 L21.1979173,28.1145817 L16.9140632,28.1145817 C16.9314232,24.6510226 16.9401032,21.842891 16.9401032,19.6901023 C16.9401032,17.5373136 16.9357632,16.2526036 16.9270832,15.8359374 L16.9140632,15.2109365 L21.1979173,15.2109365 L21.1979173,17.0859361 L21.1718744,17.0859361 C21.345486,16.8081557 21.5234377,16.565104 21.7057293,16.3567694 C21.888021,16.1484349 22.1332456,15.9227432 22.441406,15.6796857 C22.7495664,15.4366282 23.1271668,15.2478295 23.5742189,15.1132807 C24.021268,14.978732 24.5182272,14.9114561 25.0651051,14.9114561 C26.5494872,14.9114561 27.7430513,15.4040724 28.6458325,16.3893223 C29.5486138,17.3745694 30,18.8176981 30,20.7187493 Z" id="Page-1" fill="#FFFFFF"></path>
        </g>
    </g>
</svg>