<?xml version="1.0" encoding="UTF-8"?>
<svg width="11px" height="18px" viewBox="0 0 11 18" version="1.1" xmlns="http://www.w3.org/2000/svg" xmlns:xlink="http://www.w3.org/1999/xlink">
    <!-- Generator: Sketch 46.2 (44496) - http://www.bohemiancoding.com/sketch -->
    <title>Page 1</title>
    <desc>Created with Sketch.</desc>
    <defs></defs>
    <g id="003-Opleidingen" stroke="none" stroke-width="1" fill="none" fill-rule="evenodd">
        <g id="003-Opleidingen-XL-1200+" transform="translate(-1114.000000, -348.000000)" fill="#C6002A">
            <path d="M1119.5,348 C1118.74088,348 1118.02832,348.143228 1117.3623,348.429688 C1116.69629,348.71615 1116.11263,349.106443 1115.61133,349.600588 C1115.11002,350.09473 1114.71615,350.678384 1114.42969,351.351562 C1114.14323,352.024743 1114,352.740882 1114,353.5 C1114,354.803393 1114.28646,356.167638 1114.85938,357.592776 C1115.43229,359.017914 1116.0625,360.321284 1116.75,361.502932 C1117.4375,362.684576 1118.06771,363.662107 1118.64062,364.435548 C1119.21354,365.20899 1119.5,365.595705 1119.5,365.595705 C1119.5,365.595705 1119.78646,365.20899 1120.35938,364.435548 C1120.93229,363.662107 1121.5625,362.684576 1122.25,361.502932 C1122.9375,360.321284 1123.56771,359.017914 1124.14062,357.592776 C1124.71354,356.167638 1125,354.803393 1125,353.5 C1125,352.740882 1124.85677,352.024743 1124.57031,351.351562 C1124.28385,350.678384 1123.88998,350.09473 1123.38867,349.600588 C1122.88737,349.106443 1122.30371,348.71615 1121.6377,348.429688 C1120.97168,348.143228 1120.25912,348 1119.5,348 Z M1119.5,356.529298 C1118.68359,356.529298 1117.98536,356.239261 1117.40527,355.659182 C1116.82519,355.079099 1116.53516,354.380863 1116.53516,353.564455 C1116.53516,352.733721 1116.82519,352.028324 1117.40527,351.448244 C1117.98536,350.868162 1118.68359,350.578125 1119.5,350.578125 C1120.31641,350.578125 1121.01464,350.868162 1121.59473,351.448244 C1122.17481,352.028324 1122.46484,352.733721 1122.46484,353.564455 C1122.46484,354.380863 1122.17481,355.079099 1121.59473,355.659182 C1121.01464,356.239261 1120.31641,356.529298 1119.5,356.529298 Z" id="Page-1"></path>
        </g>
    </g>
</svg>