<?xml version="1.0" encoding="UTF-8"?>
<svg width="21px" height="21px" viewBox="0 0 21 21" version="1.1" xmlns="http://www.w3.org/2000/svg" xmlns:xlink="http://www.w3.org/1999/xlink">
    <g id="001-Homepage" stroke="none" stroke-width="1" fill="none" fill-rule="evenodd">
        <g id="001-Homepage-XL-1200+-SEARCH" transform="translate(-422.000000, -42.000000)" fill="#999999">
            <g id="search" transform="translate(422.000000, 42.000000)">
                <path d="M9,18 C4.02943725,18 0,13.9705627 0,9 C0,4.02943725 4.02943725,0 9,0 C13.9705627,0 18,4.02943725 18,9 C18,13.9705627 13.9705627,18 9,18 Z M9,15 C12.3137085,15 15,12.3137085 15,9 C15,5.6862915 12.3137085,3 9,3 C5.6862915,3 3,5.6862915 3,9 C3,12.3137085 5.6862915,15 9,15 Z" id="Combined-Shape"></path>
                <rect id="Rectangle-6" transform="translate(16.889087, 16.889087) rotate(45.000000) translate(-16.889087, -16.889087) " x="12.8890873" y="15.3890873" width="8" height="3"></rect>
            </g>
        </g>
    </g>
</svg>
