<?xml version="1.0" encoding="UTF-8"?>
<svg width="18px" height="16px" viewBox="0 0 18 16" version="1.1" xmlns="http://www.w3.org/2000/svg" xmlns:xlink="http://www.w3.org/1999/xlink">
    <!-- Generator: Sketch 47 (45396) - http://www.bohemiancoding.com/sketch -->
    <title>Icon-Duurzaam</title>
    <desc>Created with Sketch.</desc>
    <defs></defs>
    <g id="004-OpleidingInleiding" stroke="none" stroke-width="1" fill="none" fill-rule="evenodd">
        <g id="004-OpleidingInleiding-XL-1200+" transform="translate(-1512.000000, -1061.000000)" fill="#000000">
            <g id="Icon-Duurzaam" transform="translate(1512.000000, 1061.000000)">
                <g id="Group-3">
                    <polygon id="Star" points="9 6 6.64885899 7.23606798 7.09788697 4.61803399 5.19577393 2.76393202 7.8244295 2.38196601 9 0 10.1755705 2.38196601 12.8042261 2.76393202 10.902113 4.61803399 11.351141 7.23606798"></polygon>
                    <polygon id="Star" points="4 14 1.64885899 15.236068 2.09788697 12.618034 0.195773935 10.763932 2.8244295 10.381966 4 8 5.1755705 10.381966 7.80422607 10.763932 5.90211303 12.618034 6.35114101 15.236068"></polygon>
                    <polygon id="Star" points="14 14 11.648859 15.236068 12.097887 12.618034 10.1957739 10.763932 12.8244295 10.381966 14 8 15.1755705 10.381966 17.8042261 10.763932 15.902113 12.618034 16.351141 15.236068"></polygon>
                </g>
            </g>
        </g>
    </g>
</svg>