<?xml version="1.0" encoding="UTF-8"?>
<svg width="21px" height="16px" viewBox="0 0 21 16" version="1.1" xmlns="http://www.w3.org/2000/svg" xmlns:xlink="http://www.w3.org/1999/xlink">
    <!-- Generator: Sketch 47 (45396) - http://www.bohemiancoding.com/sketch -->
    <title>Icon-Aanmelden</title>
    <desc>Created with Sketch.</desc>
    <defs></defs>
    <g id="004-OpleidingInleiding" stroke="none" stroke-width="1" fill="none" fill-rule="evenodd">
        <g id="004-OpleidingInleiding-XL-1200+" transform="translate(-1509.000000, -534.000000)" fill="#000000">
            <g id="Icon-Aanmelden" transform="translate(1509.000000, 534.000000)">
                <path d="M20.875423,3.12457852 C20.875423,3.48372672 20.7497235,3.78900028 20.4983186,4.04040221 L10.7474756,13.7912455 L8.91582521,15.6228956 C8.66442026,15.8742998 8.35914971,16 8.00000151,16 C7.64085029,16 7.33557974,15.8742998 7.08417479,15.6228956 L5.25252438,13.7912455 L0.377104408,8.91582521 C0.125700212,8.66442026 0,8.35914971 0,7.99999849 C0,7.64085029 0.125700212,7.33557974 0.377104408,7.08417479 L2.20875452,5.25252438 C2.46015856,5.00111943 2.76543061,4.87541998 3.12457852,4.87541998 C3.48372672,4.87541998 3.78900028,5.00111943 4.04040523,5.25252438 L8.00000151,9.22558782 L16.8350178,0.377104408 C17.0864227,0.125699458 17.3916933,0 17.7508445,0 C18.1099927,0 18.4152632,0.125699458 18.6666682,0.377104408 L20.4983186,2.2087518 C20.7497235,2.46015675 20.875423,2.76543031 20.875423,3.12457852 Z" id="Page-1"></path>
            </g>
        </g>
    </g>
</svg>