<?xml version="1.0" encoding="UTF-8"?>
<svg width="31px" height="22px" viewBox="0 0 31 22" version="1.1" xmlns="http://www.w3.org/2000/svg" xmlns:xlink="http://www.w3.org/1999/xlink">
    <!-- Generator: Sketch 47 (45396) - http://www.bohemiancoding.com/sketch -->
    <title>Icon-Open</title>
    <desc>Created with Sketch.</desc>
    <defs></defs>
    <g id="004-OpleidingInleiding" stroke="none" stroke-width="1" fill="none" fill-rule="evenodd">
        <g id="004-OpleidingInleiding-XL-1200+" transform="translate(-1499.000000, -673.000000)">
            <g id="Icon-Open" transform="translate(1499.000000, 673.000000)">
                <g id="Group">
                    <circle id="Oval" fill="#000000" cx="16" cy="1" r="1"></circle>
                    <rect id="Rectangle-4" fill="#000000" transform="translate(15.500000, 13.500000) rotate(-5.000000) translate(-15.500000, -13.500000) " x="1" y="7" width="29" height="13" rx="2"></rect>
                    <path d="M4,13.5 C4,11.5124654 4.92105263,10 6.86980609,10 C8.81855956,10 9.74930748,11.5124654 9.74930748,13.5 C9.74930748,15.4875346 8.81855956,17 6.86980609,17 C4.92105263,17 4,15.4875346 4,13.5 Z M5.62880886,13.5 C5.62880886,14.799169 5.94875346,15.8559557 6.86980609,15.8559557 C7.79085873,15.8559557 8.12049861,14.799169 8.12049861,13.5 C8.12049861,12.200831 7.79085873,11.1440443 6.86980609,11.1440443 C5.94875346,11.1440443 5.62880886,12.200831 5.62880886,13.5 Z M12.367036,13.2285319 L12.8711911,13.2285319 C13.365651,13.2285319 13.7243767,12.8891967 13.7243767,12.2590028 C13.7243767,11.5900277 13.4141274,11.299169 12.7839335,11.299169 L12.367036,11.299169 L12.367036,13.2285319 Z M10.8351801,16.8836565 L10.8351801,10.1163435 L12.9972299,10.1163435 C14.4418283,10.1163435 15.3144044,10.8047091 15.3144044,12.2686981 C15.3144044,13.4224377 14.6745152,14.4113573 13.1911357,14.4113573 L12.4252078,14.4113573 L12.4252078,16.8836565 L10.8351801,16.8836565 Z M16.2257618,16.8836565 L20.2493075,16.8836565 L20.2493075,15.700831 L17.7576177,15.700831 L17.7576177,13.9944598 L20.0166205,13.9944598 L20.0166205,12.8116343 L17.7576177,12.8116343 L17.7576177,11.299169 L20.132964,11.299169 L20.132964,10.1163435 L16.2257618,10.1163435 L16.2257618,16.8836565 Z M21.2285319,16.8836565 L22.6246537,16.8836565 L22.6246537,11.9875346 L22.6440443,11.9875346 L24.5927978,16.8836565 L26.4736842,16.8836565 L26.4736842,10.1163435 L25.0775623,10.1163435 L25.0775623,14.8088643 L25.0581717,14.8088643 L23.0900277,10.1163435 L21.2285319,10.1163435 L21.2285319,16.8836565 Z" id="OPEN" fill-opacity="0.980000019" fill="#FFFFFF" transform="translate(15.236842, 13.500000) rotate(-5.000000) translate(-15.236842, -13.500000) "></path>
                    <polygon id="Path-2" stroke="#000000" stroke-linejoin="round" points="8.37426758 8.38964844 16.0776367 0.0673828125 22.4626465 7.41723633"></polygon>
                </g>
            </g>
        </g>
    </g>
</svg>